# xmcd CD database file
#
# Track frame offsets:
#	150
#	17139
#	29303
#	45845
#	69760
#	84224
#	101801
#	126061
#	145539
#	159130
#	176460
#	189883
#	217996
#	231746
#	255774
#	279564
#
# Disc length: 3964 seconds
#
# Revision: 0
# Processed by: cddbd v1.4PL0 Copyright (c) Steve Scherf et al.
# Submitted via: CDex 1.50beta10
#
DISCID=be0f7a10
DTITLE=Jason Boland and the Stragglers - Jason Boland and the Stragglers - Live at Billy Bob's Texas
DYEAR=2003
DGENRE=Country
TTITLE0=Drinking Song 
TTITLE1=Tennessee Whiskey
TTITLE2=Shot Full of Holes
TTITLE3=Proud Souls
TTITLE4=Pearl Snaps
TTITLE5=Mexico or Crazy
TTITLE6=Somewhere Down In Texas
TTITLE7=Telephone Romeo
TTITLE8=When I'm Stoned
TTITLE9=Falling with Style
TTITLE10=Ponies
TTITLE11=Mary
TTITLE12=Truckstop Diaries
TTITLE13=Song For You
TTITLE14=Big Shot Rich Man
TTITLE15=Mexico or Crazy - Studio Version
EXTD=YEAR: 2003
EXTT0=
EXTT1=
EXTT2=
EXTT3=
EXTT4=
EXTT5=
EXTT6=
EXTT7=
EXTT8=
EXTT9=
EXTT10=
EXTT11=
EXTT12=
EXTT13=
EXTT14=
EXTT15=
PLAYORDER=
